<?xml version="1.0" encoding="UTF-8"?>
<svg id="Camada_2" data-name="Camada 2" xmlns="http://www.w3.org/2000/svg" version="1.1" viewBox="0 0 2310.4 995.7">
  <defs>
    <style>
      .cls-1 {
        fill-opacity: 0;
      }

      .cls-1, .cls-2, .cls-3 {
        stroke-width: 0px;
      }

      .cls-1, .cls-3 {
        fill: #fff;
      }

      .cls-2 {
        fill: #d60c80;
      }
    </style>
  </defs>
  <g id="Layer_1" data-name="Layer 1">
    <rect class="cls-1" x="49.5" y="89.8" width="816" height="816"/>
    <path class="cls-3" d="M829.1,866.6h-194.3c.2-2.8.2-5.6.2-8.5,0-19.2-3.2-35.9-9.5-50.1-6.3-14.2-15.6-26.6-27.9-37.3-12.2-10.7-27.7-19.8-46.2-27.2-18.6-7.4-39.9-14.2-63.9-20.3-21.9-5.2-39.9-10.3-54.1-15.1-14.2-4.8-25.4-10-33.4-15.7-8.1-5.7-13.7-11.8-16.7-18.3-3.1-6.5-4.6-14.4-4.6-23.6,0-15.3,6.5-28.3,19.6-39,13.1-10.7,31.5-16,55-16s41.7,4,62.2,12.1c20.5,8.1,41.3,19.8,62.2,35.1l43.2-60.9c-23.6-18.7-48.8-33-75.7-42.8-26.8-9.8-57.1-14.7-90.8-14.7s-43.7,3.2-62.9,9.5c-19.2,6.3-35.7,15.4-49.4,27.2-13.7,11.8-24.5,25.9-32.4,42.3-7.8,16.4-11.8,34.6-11.8,54.7s3.4,39.5,10.2,54.4c6.8,14.8,16.6,27.5,29.5,38,12.9,10.5,28.8,19.2,47.9,26.2,19,7,40.7,13.3,65.2,19,21.4,5.2,38.8,10.3,52.1,15.1,13.3,4.8,23.8,10,31.5,15.4,7.7,5.5,12.9,11.5,15.7,18,2.8,6.5,4.3,14,4.3,22.3v.5c-.1,17.7-7.5,31.7-22,42.1-14.6,10.5-34.4,15.7-59.3,15.7s-54.6-5.1-77.3-15.4c-22-10-43.8-24.1-65.4-42.4-.7-.6-1.4-1.2-2.1-1.8l-1.5,1.8H85.9v-498.8L457.5,96.2l371.6,271.6v498.8h0ZM897.4,311.3L482.9,8.3c-15.1-11.1-35.6-11.1-50.7,0L17.6,311.3c-11.1,8.1-17.6,21-17.6,34.7v563.6c0,23.7,19.2,43,43,43h276.4c16.1,10.3,32.9,18.7,50.4,25.2,32.3,12,66.2,18,101.5,18s46.1-3.1,66.2-9.2c20.1-6.1,37.3-15.1,51.7-26.8,2.8-2.3,5.4-4.6,7.9-7.1h274.9c23.7,0,43-19.2,43-43V346c0-13.7-6.5-26.6-17.6-34.7"/>
    <path class="cls-2" d="M388.2,248.1h59.2v-59.2h-59.2v59.2"/>
    <path class="cls-2" d="M526.8,188.9h-59.2v59.2h59.2v-59.2"/>
    <path class="cls-2" d="M388.2,325.6h59.2v-59.2h-59.2v59.2"/>
    <path class="cls-2" d="M526.8,266.4h-59.2v59.2h59.2v-59.2"/>
    <path class="cls-3" d="M1030.1,270.4c4.2,0,6.5,1.9,6.5,6.5v311.2c0,4.6-2.3,6.5-6.5,6.5h-38.9c-4.2,0-6.5-1.8-6.5-6.5v-311.2c0-4.6,2.3-6.5,6.5-6.5h38.9Z"/>
    <path class="cls-3" d="M1094,270.4h39.4c4.2,0,7.4,2.3,8.8,6.5l47.7,162.5h2.8l48.2-162.5c.9-4.2,4.6-6.5,8.8-6.5h40.8c4.6,0,6.5,1.9,6.5,6.5v311.2c0,4.6-1.8,6.5-6.5,6.5h-38.9c-4.2,0-6.5-1.8-6.5-6.5v-178.3h-2.8l-33.3,105.6c-.9,4.6-3.7,7-8.3,7h-19c-4.6,0-6.9-2.3-8.3-7l-32.4-105.6h-3.2v178.3c0,4.6-2.3,6.5-6.5,6.5h-37.1c-4.2,0-6.5-1.8-6.5-6.5v-311.2c0-4.6,2.3-6.5,6.5-6.5h0Z"/>
    <path class="cls-3" d="M1344.5,535.3v-205.6c0-42.1,22.7-62,57.4-62h57.9c34.7,0,57.4,19.9,57.4,62v205.6c0,42.1-22.7,62-57.4,62h-57.9c-34.7,0-57.4-19.9-57.4-62ZM1396.3,329.7v205.6c0,12,5.6,17.6,17.6,17.6h33.8c12,0,17.6-5.6,17.6-17.6v-205.6c0-12-5.6-17.6-17.6-17.6h-33.8c-12,0-17.6,5.6-17.6,17.6ZM1440.3,249.1c-1.8,2.3-4.2,4.6-8.8,4.6h-25c-3.2,0-5.1-2.8-3.2-6.5l29.2-54.2c.9-2.3,3.2-4.2,6-4.2h40.3c3.2,0,4.6,2.8,2.8,6l-41.2,54.2h0Z"/>
    <path class="cls-3" d="M1673.7,588.1c-.9,4.6-4.2,6.5-8.8,6.5h-52.3c-4.6,0-7.9-1.8-8.8-6.5l-62.1-310.7c-.9-3.7.9-7,4.6-7h42.6c4.2,0,6.5,1.9,6.9,6l42.1,233.9h3.2l42.1-233.9c.5-4.2,3.2-6,6.9-6h40.8c3.7,0,5.6,3.2,4.6,7l-62.1,310.7h0Z"/>
    <path class="cls-3" d="M1767.8,588.1v-311.2c0-4.6,2.3-6.5,6.5-6.5h141.7c4.2,0,6,2.3,5.6,6.5l-4.2,32c-.5,3.7-3.2,6-6.9,6h-90.8v92.6h69.9c4.2,0,6,2.8,5.6,6.5l-4.2,32c-.5,3.7-3.2,6-6.9,6h-64.4v98.2h96.3c4.2,0,6,2.8,5.6,6.5l-4.2,32c-.5,3.7-3.2,6-6.9,6h-136.2c-4.2,0-6.5-1.8-6.5-6.5h0Z"/>
    <path class="cls-3" d="M2098.4,550.1c4.2,0,6,2.8,5.6,6.5l-4.2,32c-.5,3.7-3.2,6-7.4,6h-128.3c-4.2,0-6.5-1.8-6.5-6.5v-311.2c0-4.6,2.3-6.5,6.5-6.5h38.9c4.2,0,6.5,1.9,6.5,6.5v273.2h88.9Z"/>
    <path class="cls-3" d="M983.7,750.9v-65.8c0-42.1,22.7-62,57.4-62h56c34.7,0,57.4,19.9,57.4,62v30.6c0,4.2-3.2,7-7.4,7.4l-48.2,4.6c-4.6.5-7.4-2.3-7.4-6.5v-35.2c0-5.1-2.3-7.4-7.4-7.4h-27.8c-5.1,0-7.4,2.3-7.4,7.4v63.9c0,5.1,2.3,7.4,7.4,7.4h45.4c34.7,0,57.4,19.9,57.4,62v71.3c0,42.1-22.7,62-57.4,62h-63c-34.7,0-57.4-19.9-57.4-62v-36.1c0-4.2,3.2-7,7.4-7.4l48.2-4.6c4.6-.5,7.4,2.3,7.4,6.5v40.8c0,5.1,2.3,7.4,7.4,7.4h34.7c5.1,0,7.4-2.3,7.4-7.4v-69.5c0-5.1-2.3-7.4-7.4-7.4h-45.4c-34.7,0-57.4-19.9-57.4-62h0Z"/>
    <path class="cls-3" d="M1253.2,625.8c4.6,0,6.9,2.3,6.9,7v310.3c0,4.6-2.3,7-6.9,7h-51.4c-4.6,0-6.9-2.3-6.9-7v-310.3c0-4.6,2.3-7,6.9-7h51.4Z"/>
    <path class="cls-3" d="M1312.5,625.8h46.3c4.6,0,8.8,2.3,10.2,7l41.7,145.4h2.8l42.1-145.4c1.4-4.6,5.6-7,10.2-7h48.6c4.6,0,6.9,2.3,6.9,7v310.3c0,4.6-2.3,7-6.9,7h-51.4c-4.6,0-6.9-2.3-6.9-7v-145.4h-3.2l-23.2,72.7c-1.4,4.6-4.2,7.4-9.3,7.4h-16.7c-5.1,0-7.9-2.8-9.3-7.4l-22.7-72.7h-3.2v145.4c0,4.6-2.3,7-6.9,7h-49.1c-4.6,0-6.9-2.3-6.9-7v-310.3c0-4.6,2.3-7,6.9-7h0Z"/>
    <path class="cls-3" d="M1683,625.8c34.7,0,57.4,19.9,57.4,62v135.2c0,42.1-22.7,62-57.4,62h-50.9v57.9c0,4.6-2.3,7-6.9,7h-51.4c-4.6,0-6.9-2.3-6.9-7v-310.3c0-4.6,2.3-7,6.9-7h109.3,0ZM1632,681.4v148.2h35.7c5.1,0,7.4-2.3,7.4-7.4v-133.4c0-5.1-2.3-7.4-7.4-7.4h-35.7Z"/>
    <path class="cls-3" d="M1919.6,894.4c4.6,0,6.9,2.8,6.5,7l-5.1,42.1c-.5,3.7-3.7,6.5-7.9,6.5h-132.4c-4.6,0-6.9-2.3-6.9-7v-310.3c0-4.6,2.3-7,6.9-7h51.4c4.6,0,6.9,2.3,6.9,7v261.7h80.6,0Z"/>
    <path class="cls-3" d="M1950.2,943v-310.3c0-4.6,2.3-7,6.9-7h145.9c4.6,0,6.9,2.8,6.5,7l-5.1,42.1c-.5,3.7-3.7,6.5-7.9,6.5h-81v76h60.7c4.6,0,6.9,2.8,6.5,7l-5.1,42.1c-.5,3.7-3.7,6.5-7.9,6.5h-54.2v81.5h87.5c4.6,0,6.9,2.8,6.5,7l-5.1,42.1c-.5,3.7-3.7,6.5-7.9,6.5h-139.4c-4.6,0-6.9-2.3-6.9-7h0Z"/>
    <path class="cls-3" d="M2134.9,750.9v-65.8c0-42.1,22.7-62,57.4-62h56c34.7,0,57.4,19.9,57.4,62v30.6c0,4.2-3.2,7-7.4,7.4l-48.2,4.6c-4.6.5-7.4-2.3-7.4-6.5v-35.2c0-5.1-2.3-7.4-7.4-7.4h-27.8c-5.1,0-7.4,2.3-7.4,7.4v63.9c0,5.1,2.3,7.4,7.4,7.4h45.4c34.7,0,57.4,19.9,57.4,62v71.3c0,42.1-22.7,62-57.4,62h-63c-34.7,0-57.4-19.9-57.4-62v-36.1c0-4.2,3.2-7,7.4-7.4l48.2-4.6c4.6-.5,7.4,2.3,7.4,6.5v40.8c0,5.1,2.3,7.4,7.4,7.4h34.7c5.1,0,7.4-2.3,7.4-7.4v-69.5c0-5.1-2.3-7.4-7.4-7.4h-45.4c-34.7,0-57.4-19.9-57.4-62h0Z"/>
  </g>
</svg>